<svg xmlns="http://www.w3.org/2000/svg" xmlns:xlink="http://www.w3.org/1999/xlink" contentStyleType="text/css" data-diagram-type="DESCRIPTION" height="941px" preserveAspectRatio="none" style="width:2255px;height:941px;background:#FFFFFF;" version="1.1" viewBox="0 0 2255 941" width="2255px" zoomAndPan="magnify"><defs/><g><!--cluster ClientProd--><g class="cluster" data-entity="ClientProd" data-source-line="12" data-uid="ent0002" id="cluster_ClientProd"><polygon fill="none" points="375,16,385,6,619,6,619,137,609,147,375,147,375,16" style="stroke:#181818;stroke-width:1;"/><line style="stroke:#181818;stroke-width:1;" x1="609" x2="619" y1="16" y2="6"/><line style="stroke:#181818;stroke-width:1;" x1="375" x2="609" y1="16" y2="16"/><line style="stroke:#181818;stroke-width:1;" x1="609" x2="609" y1="16" y2="147"/><text fill="#000000" font-family="sans-serif" font-size="14" font-weight="bold" lengthAdjust="spacing" textLength="168.0068" x="408.9966" y="31.9951">&#171;device&#187; User Device</text></g><!--cluster AppServerProd--><g class="cluster" data-entity="AppServerProd" data-source-line="16" data-uid="ent0004" id="cluster_AppServerProd"><polygon fill="none" points="16,222,26,212,416,212,416,595,406,605,16,605,16,222" style="stroke:#181818;stroke-width:1;"/><line style="stroke:#181818;stroke-width:1;" x1="406" x2="416" y1="222" y2="212"/><line style="stroke:#181818;stroke-width:1;" x1="16" x2="406" y1="222" y2="222"/><line style="stroke:#181818;stroke-width:1;" x1="406" x2="406" y1="222" y2="605"/><text fill="#000000" font-family="sans-serif" font-size="14" font-weight="bold" lengthAdjust="spacing" textLength="219.3994" x="102.3003" y="237.9951">&#171;server&#187; Application Server</text><text fill="#000000" font-family="sans-serif" font-size="14" font-weight="bold" lengthAdjust="spacing" textLength="155.2578" x="134.3711" y="254.292">(Node.js + Express)</text></g><!--cluster MLServerProd--><g class="cluster" data-entity="MLServerProd" data-source-line="23" data-uid="ent0009" id="cluster_MLServerProd"><polygon fill="none" points="954,442,964,432,1438,432,1438,743,1428,753,954,753,954,442" style="stroke:#181818;stroke-width:1;"/><line style="stroke:#181818;stroke-width:1;" x1="1428" x2="1438" y1="442" y2="432"/><line style="stroke:#181818;stroke-width:1;" x1="954" x2="1428" y1="442" y2="442"/><line style="stroke:#181818;stroke-width:1;" x1="1428" x2="1428" y1="442" y2="753"/><text fill="#000000" font-family="sans-serif" font-size="14" font-weight="bold" lengthAdjust="spacing" textLength="225.0391" x="1079.4805" y="457.9951">&#171;server&#187; ML Backend Server</text><text fill="#000000" font-family="sans-serif" font-size="14" font-weight="bold" lengthAdjust="spacing" textLength="145.3799" x="1119.3101" y="474.292">(Django + Python)</text></g><!--cluster MongoDBProd--><g class="cluster" data-entity="MongoDBProd" data-source-line="29" data-uid="ent0013" id="cluster_MongoDBProd"><path d="M1478,472.5 C1478,462.5 1608.5,462.5 1608.5,462.5 C1608.5,462.5 1739,462.5 1739,472.5 L1739,570.5 C1739,580.5 1608.5,580.5 1608.5,580.5 C1608.5,580.5 1478,580.5 1478,570.5 L1478,472.5" fill="none" style="stroke:#181818;stroke-width:1;"/><path d="M1478,472.5 C1478,482.5 1608.5,482.5 1608.5,482.5 C1608.5,482.5 1739,482.5 1739,472.5" fill="none" style="stroke:#181818;stroke-width:1;"/><text fill="#000000" font-family="sans-serif" font-size="14" font-weight="bold" lengthAdjust="spacing" textLength="216.2959" x="1500.3521" y="497.4951">&#171;database&#187; MongoDB Atlas</text></g><!--cluster DevMachine--><g class="cluster" data-entity="DevMachine" data-source-line="51" data-uid="ent0023" id="cluster_DevMachine"><polygon fill="none" points="1771,24,1781,14,2238,14,2238,579,2228,589,1771,589,1771,24" style="stroke:#181818;stroke-width:1;"/><line style="stroke:#181818;stroke-width:1;" x1="2228" x2="2238" y1="24" y2="14"/><line style="stroke:#181818;stroke-width:1;" x1="1771" x2="2228" y1="24" y2="24"/><line style="stroke:#181818;stroke-width:1;" x1="2228" x2="2228" y1="24" y2="589"/><text fill="#000000" font-family="sans-serif" font-size="14" font-weight="bold" lengthAdjust="spacing" textLength="214.3682" x="1893.3159" y="39.9951">&#171;device&#187; Developer Laptop</text></g><!--entity ReactApp--><g class="entity" data-entity="ReactApp" data-source-line="13" data-uid="ent0003" id="entity_ReactApp"><rect fill="#F1F1F1" height="68.8906" rx="2.5" ry="2.5" style="stroke:#181818;stroke-width:0.5;" width="127.666" x="454" y="54"/><text fill="#000000" font-family="sans-serif" font-size="14" lengthAdjust="spacing" textLength="107.666" x="464" y="76.9951">React Frontend</text><text fill="#000000" font-family="sans-serif" font-size="14" lengthAdjust="spacing" textLength="61.0449" x="464" y="93.292">- Chat UI</text><text fill="#000000" font-family="sans-serif" font-size="14" lengthAdjust="spacing" textLength="54.1064" x="464" y="109.5889">- Stores</text></g><!--entity ExpressAPI--><g class="entity" data-entity="ExpressAPI" data-source-line="17" data-uid="ent0005" id="entity_ExpressAPI"><rect fill="#F1F1F1" height="85.1875" rx="2.5" ry="2.5" style="stroke:#181818;stroke-width:0.5;" width="160.0342" x="40" y="276"/><text fill="#000000" font-family="sans-serif" font-size="14" lengthAdjust="spacing" textLength="81.5732" x="50" y="298.9951">Express API</text><text fill="#000000" font-family="sans-serif" font-size="14" lengthAdjust="spacing" textLength="111.4873" x="50" y="315.292">- AuthController</text><text fill="#000000" font-family="sans-serif" font-size="14" lengthAdjust="spacing" textLength="140.0342" x="50" y="331.5889">- MessageController</text><text fill="#000000" font-family="sans-serif" font-size="14" lengthAdjust="spacing" textLength="110.585" x="50" y="347.8857">- UserController</text></g><!--entity SocketIO--><g class="entity" data-entity="SocketIO" data-source-line="18" data-uid="ent0006" id="entity_SocketIO"><rect fill="#F1F1F1" height="52.5938" rx="2.5" ry="2.5" style="stroke:#181818;stroke-width:0.5;" width="137.3184" x="235.5" y="292"/><text fill="#000000" font-family="sans-serif" font-size="14" lengthAdjust="spacing" textLength="117.3184" x="245.5" y="314.9951">Socket.IO Server</text><text fill="#000000" font-family="sans-serif" font-size="14" lengthAdjust="spacing" textLength="116.4775" x="245.5" y="331.292">- Event Handlers</text></g><!--entity StaticFiles--><g class="entity" data-entity="StaticFiles" data-source-line="19" data-uid="ent0007" id="entity_StaticFiles"><rect fill="#F1F1F1" height="52.5938" rx="2.5" ry="2.5" style="stroke:#181818;stroke-width:0.5;" width="143.2109" x="48.5" y="512"/><text fill="#000000" font-family="sans-serif" font-size="14" lengthAdjust="spacing" textLength="119.2871" x="58.5" y="534.9951">Static File Server</text><text fill="#000000" font-family="sans-serif" font-size="14" lengthAdjust="spacing" textLength="123.2109" x="58.5" y="551.292">- React build /dist</text></g><!--entity Libraries--><g class="entity" data-entity="Libraries" data-source-line="20" data-uid="ent0008" id="entity_Libraries"><rect fill="#F1F1F1" height="85.1875" rx="2.5" ry="2.5" style="stroke:#181818;stroke-width:0.5;" width="146.4307" x="227" y="496"/><text fill="#000000" font-family="sans-serif" font-size="14" lengthAdjust="spacing" textLength="60.4639" x="237" y="518.9951">Libraries</text><text fill="#000000" font-family="sans-serif" font-size="14" lengthAdjust="spacing" textLength="126.4307" x="237" y="535.292">- e2eEncryption.js</text><text fill="#000000" font-family="sans-serif" font-size="14" lengthAdjust="spacing" textLength="76.7266" x="237" y="551.5889">- toxicity.js</text><text fill="#000000" font-family="sans-serif" font-size="14" lengthAdjust="spacing" textLength="82.5029" x="237" y="567.8857">- mongoose</text></g><!--entity DjangoAPI--><g class="entity" data-entity="DjangoAPI" data-source-line="24" data-uid="ent0010" id="entity_DjangoAPI"><rect fill="#F1F1F1" height="52.5938" rx="2.5" ry="2.5" style="stroke:#181818;stroke-width:0.5;" width="247.3291" x="997.5" y="512"/><text fill="#000000" font-family="sans-serif" font-size="14" lengthAdjust="spacing" textLength="116.6348" x="1007.5" y="534.9951">Django REST API</text><text fill="#000000" font-family="sans-serif" font-size="14" lengthAdjust="spacing" textLength="227.3291" x="1007.5" y="551.292">- Sentiment / Toxicity / Analytics</text></g><!--entity MLModels--><g class="entity" data-entity="MLModels" data-source-line="25" data-uid="ent0011" id="entity_MLModels"><rect fill="#F1F1F1" height="85.1875" rx="2.5" ry="2.5" style="stroke:#181818;stroke-width:0.5;" width="134.3652" x="1280" y="496"/><text fill="#000000" font-family="sans-serif" font-size="14" lengthAdjust="spacing" textLength="114.3652" x="1290" y="518.9951">ML Models (.pkl)</text><text fill="#000000" font-family="sans-serif" font-size="14" lengthAdjust="spacing" textLength="96.168" x="1290" y="535.292">- Naive Bayes</text><text fill="#000000" font-family="sans-serif" font-size="14" lengthAdjust="spacing" textLength="40.0449" x="1290" y="551.5889">- SVM</text><text fill="#000000" font-family="sans-serif" font-size="14" lengthAdjust="spacing" textLength="80.8076" x="1290" y="567.8857">- Vectorizer</text></g><!--entity Analyzers--><g class="entity" data-entity="Analyzers" data-source-line="26" data-uid="ent0012" id="entity_Analyzers"><rect fill="#F1F1F1" height="68.8906" rx="2.5" ry="2.5" style="stroke:#181818;stroke-width:0.5;" width="175.5586" x="1033" y="660"/><text fill="#000000" font-family="sans-serif" font-size="14" lengthAdjust="spacing" textLength="118.1113" x="1043" y="682.9951">Analyzer Classes</text><text fill="#000000" font-family="sans-serif" font-size="14" lengthAdjust="spacing" textLength="155.5586" x="1043" y="699.292">- Enhanced Sentiment</text><text fill="#000000" font-family="sans-serif" font-size="14" lengthAdjust="spacing" textLength="64.1553" x="1043" y="715.5889">- Toxicity</text></g><!--entity users, messages, groups--><g class="entity" data-entity="users. messages. groups" data-source-line="30" data-uid="ent0014" id="entity_users. messages. groups"><rect fill="#F1F1F1" height="36.2969" rx="2.5" ry="2.5" style="stroke:#181818;stroke-width:0.5;" width="194.1045" x="1521" y="520.5"/><text fill="#000000" font-family="sans-serif" font-size="14" lengthAdjust="spacing" textLength="174.1045" x="1531" y="543.4951">users, messages, groups</text></g><!--entity ViteDev--><g class="entity" data-entity="ViteDev" data-source-line="52" data-uid="ent0024" id="entity_ViteDev"><rect fill="#F1F1F1" height="68.8906" rx="2.5" ry="2.5" style="stroke:#181818;stroke-width:0.5;" width="142.8076" x="1833.5" y="54"/><text fill="#000000" font-family="sans-serif" font-size="14" lengthAdjust="spacing" textLength="110.0586" x="1843.5" y="76.9951">Vite Dev Server</text><text fill="#000000" font-family="sans-serif" font-size="14" lengthAdjust="spacing" textLength="73.0488" x="1843.5" y="93.292">Port: 5173</text><text fill="#000000" font-family="sans-serif" font-size="14" lengthAdjust="spacing" textLength="122.8076" x="1843.5" y="109.5889">HMR, Proxy /api/*</text></g><!--entity NodeDev--><g class="entity" data-entity="NodeDev" data-source-line="53" data-uid="ent0025" id="entity_NodeDev"><rect fill="#F1F1F1" height="68.8906" rx="2.5" ry="2.5" style="stroke:#181818;stroke-width:0.5;" width="162.5635" x="1869.5" y="284"/><text fill="#000000" font-family="sans-serif" font-size="14" lengthAdjust="spacing" textLength="116.9834" x="1879.5" y="306.9951">Node.js Backend</text><text fill="#000000" font-family="sans-serif" font-size="14" lengthAdjust="spacing" textLength="73.0488" x="1879.5" y="323.292">Port: 5001</text><text fill="#000000" font-family="sans-serif" font-size="14" lengthAdjust="spacing" textLength="142.5635" x="1879.5" y="339.5889">Express + Socket.IO</text></g><!--entity DjangoDev--><g class="entity" data-entity="DjangoDev" data-source-line="54" data-uid="ent0026" id="entity_DjangoDev"><rect fill="#F1F1F1" height="68.8906" rx="2.5" ry="2.5" style="stroke:#181818;stroke-width:0.5;" width="152.0635" x="1819" y="504"/><text fill="#000000" font-family="sans-serif" font-size="14" lengthAdjust="spacing" textLength="132.0635" x="1829" y="526.9951">Django Dev Server</text><text fill="#000000" font-family="sans-serif" font-size="14" lengthAdjust="spacing" textLength="73.0488" x="1829" y="543.292">Port: 8000</text><text fill="#000000" font-family="sans-serif" font-size="14" lengthAdjust="spacing" textLength="46.4775" x="1829" y="559.5889">ML API</text></g><!--entity MongoDBDev--><g class="entity" data-entity="MongoDBDev" data-source-line="55" data-uid="ent0027" id="entity_MongoDBDev"><path d="M2037,517.5 C2037,507.5 2101.168,507.5 2101.168,507.5 C2101.168,507.5 2165.3359,507.5 2165.3359,517.5 L2165.3359,559.0938 C2165.3359,569.0938 2101.168,569.0938 2101.168,569.0938 C2101.168,569.0938 2037,569.0938 2037,559.0938 L2037,517.5" fill="#F1F1F1" style="stroke:#181818;stroke-width:0.5;"/><path d="M2037,517.5 C2037,527.5 2101.168,527.5 2101.168,527.5 C2101.168,527.5 2165.3359,527.5 2165.3359,517.5" fill="none" style="stroke:#181818;stroke-width:0.5;"/><text fill="#000000" font-family="sans-serif" font-size="14" lengthAdjust="spacing" textLength="108.3359" x="2047" y="544.4951">MongoDB Local</text><text fill="#000000" font-family="sans-serif" font-size="14" lengthAdjust="spacing" textLength="81.9561" x="2047" y="560.792">Port: 27017</text></g><!--entity CloudinaryProd--><g class="entity" data-entity="CloudinaryProd" data-source-line="33" data-uid="ent0015" id="entity_CloudinaryProd"><path d="M449.1875,525.3502 C451.8343,519.226 457.6719,518.9806 461.4274,524.1485 C464.7869,518.2321 470.4156,517.6958 474.4642,523.3736 C480.009,516.4876 484.705,517.3123 489.6212,524.0719 C493.0925,517.4231 498.6593,517.3022 502.5854,523.6171 C506.5937,518.222 510.7574,518.5189 514.9381,523.4101 C517.5471,516.7138 523.5343,515.6924 528.4697,520.7265 C532.3483,514.1141 538.7999,515.3527 542.1244,521.3275 C546.2304,516.0272 550.7182,516.1368 554.3558,521.8479 C559.8416,514.3582 564.5033,516.5085 568.8089,523.0625 C572.9992,516.4966 577.1624,515.5456 582.0934,522.3252 C586.6124,517.7325 590.8588,517.1325 593.9741,523.8055 C597.6222,517.4913 602.838,517.1927 606.4825,523.8089 C610.3173,516.3078 617.2852,517.4021 621.4685,523.4227 C626.4439,518.7443 630.5487,518.0284 634.0074,525.0484 C642.1361,528.3462 644.3741,534.3251 636.7746,540.449 C643.2142,546.6272 642.8662,551.3917 634.4671,555.2579 C630.5455,562.0063 624.3037,564.0283 619.4046,556.273 C616.6902,562.9633 612.2665,562.8192 607.7372,558.1345 C603.9738,564.2558 598.3708,564.1089 594.7577,557.9752 C591.168,564.887 586.8614,564.9739 581.7699,559.5573 C577.2028,565.9392 570.9946,566.2811 567.2786,558.6756 C564.767,564.724 560.1909,567.079 554.81,561.8472 C550.0235,569.1683 545.5678,569.3322 540.5359,562.0877 C535.367,567.0537 531.952,565.6905 529.3491,559.512 C525.5099,564.8729 519.3154,564.3888 516.1236,558.7347 C511.3673,567.0005 505.1736,565.2559 500.841,558.3091 C495.8415,564.3969 491.9904,563.7436 488.5934,556.8026 C485.0642,562.0331 479.607,562.6348 476.3369,556.5227 C472.5687,562.1486 466.2693,561.501 462.9409,555.9935 C457.5986,562.2089 451.3345,562.5694 448.1239,553.8751 C440.8962,551.7603 439.6932,546.613 443.9739,540.8355 C438.0002,533.5026 439.62,527.4508 449.1875,525.3502" fill="#F1F1F1" style="stroke:#181818;stroke-width:0.5;"/><text fill="#000000" font-family="sans-serif" font-size="14" lengthAdjust="spacing" textLength="170.3447" x="455" y="543.4951">&#171;cloud&#187; Cloudinary CDN</text></g><!--entity PerspectiveProd--><g class="entity" data-entity="PerspectiveProd" data-source-line="34" data-uid="ent0016" id="entity_PerspectiveProd"><path d="M684.2059,524.615 C688.8834,516.8438 696.5528,517.1804 700.8306,525.0402 C705.9601,517.4473 713.4342,516.4612 719.0083,524.524 C723.7469,514.9134 731.7921,515.282 736.8958,524.1711 C740.4939,516.4155 747.2155,517.0989 752.048,522.779 C758.1879,514.6718 763.3159,515.0547 769.0486,523.2048 C773.1604,514.0934 781.2328,514.8346 786.3967,522.0896 C791.0333,512.409 799.6479,513.9553 804.093,522.2778 C809.4915,513.9811 814.822,514.1493 820.1252,522.3704 C824.7984,515.1174 830.7887,514.7544 836.5823,521.0048 C842.622,514.7625 850.1256,515.6906 853.6927,523.9269 C857.0304,515.9003 864.6915,514.7957 869.0962,522.9085 C875.5782,514.4633 881.9524,515.7221 887.1141,524.3055 C892.0145,516.79 898.3788,516.8363 902.3246,525.2188 C908.4964,517.4898 915.9754,518.2085 921.3823,526.1493 C932.031,524.2855 935.2321,530.1176 933.5972,539.4959 C936.7764,551.1746 931.5569,555.2328 920.4744,554.0691 C916.3517,564.3501 909.5252,565.5028 902.5802,556.718 C898.9292,563.3941 891.8177,563.3248 888.0442,556.8535 C884.2696,565.2289 877.7482,567.6984 870.8222,560.2926 C865.8901,567.7725 859.1008,569.0614 853.5913,560.93 C850.1424,568.5365 843.3564,569.3707 837.9293,563.1747 C832.7179,573.6668 824.6609,573.9435 818.4531,564.1305 C813.9793,573.5451 808.8635,574.2868 801.6465,566.8696 C795.1238,573.8506 789.5957,574.7759 784.7972,565.1231 C778.7,571.5713 772.6576,571.8404 768.339,563.185 C762.3639,570.8681 757.7893,570.0184 752.9833,562.0388 C745.924,569.3114 739.2908,567.8996 734.3943,559.4772 C729.4325,565.5511 724.6239,567.5211 719.4688,559.6846 C714.3926,568.1014 705.5746,568.0628 701.8881,558.3379 C694.6386,564.6388 688.9563,565.5917 684.8661,555.1297 C680.7014,554.149 678.5193,550.7245 682.0717,547.0685 C678.1407,545.3657 678.2463,542.683 680.9697,539.95 C676.6843,537.0175 677.4566,532.8812 682.1232,531.1178 C679.6459,528.0952 680.1921,525.5588 684.2059,524.615" fill="#F1F1F1" style="stroke:#181818;stroke-width:0.5;"/><text fill="#000000" font-family="sans-serif" font-size="14" lengthAdjust="spacing" textLength="221.4912" x="690.5" y="543.4951">&#171;cloud&#187; Google Perspective API</text></g><!--link ClientProd to AppServerProd--><g class="link" data-entity-1="ClientProd" data-entity-2="AppServerProd" data-source-line="39" data-uid="lnk17" id="link_ClientProd_AppServerProd"><path d="M374.9251,119.5507 C374.4816,120.0407 374.0376,120.5352 373.5933,121.0342 C371.8161,123.03 370.0343,125.0971 368.2666,127.2284 C364.7313,131.4909 361.2522,136.0103 357.9788,140.73 C351.4319,150.1694 345.7075,160.41 342,171 C339.5,178.13 337.13,182.23 342,188 C355.67,204.19 374.12,180.92 389,196 C391.3619,198.3938 393.505,200.9529 395.4475,203.6479 C396.4187,204.9954 397.3397,206.3769 398.2128,207.7888 C398.6493,208.4947 399.0739,209.2081 399.4868,209.9288 C399.6932,210.2891 399.8967,210.6511 400.0973,211.0149 C400.1976,211.1968 397.4423,206.1019 397.5412,206.2846" fill="none" id="ClientProd-to-AppServerProd" style="stroke:#181818;stroke-width:1;"/><polygon fill="#181818" points="400.396,211.5619,399.632,201.7428,398.017,207.1642,392.5956,205.5492,400.396,211.5619" style="stroke:#181818;stroke-width:1;"/><text fill="#000000" font-family="sans-serif" font-size="13" lengthAdjust="spacing" textLength="83.751" x="343" y="184.0669">HTTPS / WSS</text></g><!--link ClientProd to AppServerProd--><g class="link" data-entity-1="ClientProd" data-entity-2="AppServerProd" data-source-line="46" data-uid="lnk22" id="link_ClientProd_AppServerProd"><path d="M426.2041,147.2436 C426.2401,147.3874 426.276,147.5312 426.3118,147.675 C426.3834,147.9627 426.4547,148.2506 426.5255,148.5386 C426.6672,149.1148 426.8073,149.6917 426.9456,150.2691 C427.4992,152.579 428.0254,154.898 428.5173,157.2149 C429.5011,161.8486 430.3475,166.4738 431,171 C435.63,203.105 430.13,239.095 423.35,267.3688 C421.655,274.4372 419.88,281.0234 418.1633,286.946 C417.7341,288.4267 417.3086,289.8658 416.8888,291.2607 C416.679,291.9582 416.4705,292.6445 416.2639,293.3195 C416.2122,293.4882 417.9244,287.9213 417.873,288.0886" fill="none" id="ClientProd-to-AppServerProd-1" style="stroke:#181818;stroke-width:1;stroke-dasharray:7,7;"/><polygon fill="#181818" points="416.1092,293.8235,422.5781,286.3971,417.579,289.0445,414.9316,284.0453,416.1092,293.8235" style="stroke:#181818;stroke-width:1;"/><text fill="#000000" font-family="sans-serif" font-size="13" lengthAdjust="spacing" textLength="75.8228" x="433" y="184.0669">many users</text></g><!--link AppServerProd to MongoDBProd--><g class="link" data-entity-1="AppServerProd" data-entity-2="MongoDBProd" data-source-line="40" data-uid="lnk18" id="link_AppServerProd_MongoDBProd"><path d="M417.1443,319.8123 C417.9415,319.8402 418.7887,319.87 419.6852,319.9016 C426.8567,320.1547 437.176,320.5275 450.2174,321.0211 C476.3001,322.0082 513.2708,323.4787 557.7228,325.4417 C646.6269,329.3678 765.4563,335.2644 886.9575,343.2062 C1129.96,359.09 1383.65,383.155 1430,416 C1453.875,432.92 1467.815,462.6175 1475.815,488.4163 C1476.315,490.0287 1476.7918,491.6259 1477.2464,493.2038 C1477.4737,493.9927 1476.0898,488.9956 1476.3061,489.7744" fill="none" id="AppServerProd-to-MongoDBProd" style="stroke:#181818;stroke-width:1;"/><polygon fill="#181818" points="1477.9117,495.5556,1479.3574,485.8134,1476.5737,490.738,1471.6491,487.9542,1477.9117,495.5556" style="stroke:#181818;stroke-width:1;"/><text fill="#000000" font-family="sans-serif" font-size="13" lengthAdjust="spacing" textLength="119.9897" x="1405" y="404.0669">MongoDB protocol</text></g><!--link AppServerProd to MLServerProd--><g class="link" data-entity-1="AppServerProd" data-entity-2="MLServerProd" data-source-line="41" data-uid="lnk19" id="link_AppServerProd_MLServerProd"><path d="M416.5544,319.7188 C416.8188,319.7263 417.089,319.7341 417.365,319.7422 C418.4687,319.7742 419.6644,319.81 420.9488,319.8495 C423.5176,319.9287 426.4417,320.0233 429.6965,320.1355 C442.7156,320.5844 461.0265,321.3141 483.0636,322.4563 C527.1378,324.7406 586.1169,328.675 647.4762,335.3125 C770.195,348.5875 902.435,372.675 944,416 C946.325,418.4238 948.432,421.0091 950.3391,423.7271 C951.2927,425.0861 952.1962,426.4782 953.052,427.8999 C953.4799,428.6107 953.8959,429.3289 954.3002,430.054 C954.5024,430.4166 954.7016,430.7809 954.898,431.1468 C954.9962,431.3298 952.299,426.2038 952.3958,426.3876" fill="none" id="AppServerProd-to-MLServerProd" style="stroke:#181818;stroke-width:1;"/><polygon fill="#181818" points="955.1904,431.697,954.5381,421.8698,952.8616,427.2725,947.4588,425.596,955.1904,431.697" style="stroke:#181818;stroke-width:1;"/><text fill="#000000" font-family="sans-serif" font-size="13" lengthAdjust="spacing" textLength="178.3501" x="933" y="404.0669">HTTPS (Sentiment/Toxicity)</text></g><!--link AppServerProd to CloudinaryProd--><g class="link" data-entity-1="AppServerProd" data-entity-2="CloudinaryProd" data-source-line="42" data-uid="lnk20" id="link_AppServerProd_CloudinaryProd"><path d="M416.1005,332.8742 C416.5158,333.5601 416.945,334.269 417.3877,335.0001 C419.1582,337.9243 421.1436,341.2034 423.3125,344.7856 C431.9881,359.1144 443.6,378.2925 456.1425,399.0075 C481.2275,440.4375 506.9273,482.8826 523.4123,510.1076" fill="none" id="AppServerProd-to-CloudinaryProd" style="stroke:#181818;stroke-width:1;"/><polygon fill="#181818" points="526.52,515.24,525.28,505.4695,523.9302,510.963,518.4368,509.6132,526.52,515.24" style="stroke:#181818;stroke-width:1;"/><text fill="#000000" font-family="sans-serif" font-size="13" lengthAdjust="spacing" textLength="145.1455" x="459" y="404.0669">HTTPS (Image upload)</text></g><!--link AppServerProd to PerspectiveProd--><g class="link" data-entity-1="AppServerProd" data-entity-2="PerspectiveProd" data-source-line="43" data-uid="lnk21" id="link_AppServerProd_PerspectiveProd"><path d="M416.2237,321.1834 C420.926,322.1875 427.4979,323.6478 435.5552,325.5838 C451.6697,329.4556 473.7256,335.23 498.6488,343.0625 C548.495,358.7275 609.81,382.625 658,416 C702.99,447.16 746.1395,485.6498 773.4895,511.2498" fill="none" id="AppServerProd-to-PerspectiveProd" style="stroke:#181818;stroke-width:1;"/><polygon fill="#181818" points="777.87,515.35,774.0328,506.2794,774.2196,511.9332,768.5658,512.12,777.87,515.35" style="stroke:#181818;stroke-width:1;"/><text fill="#000000" font-family="sans-serif" font-size="13" lengthAdjust="spacing" textLength="164.4678" x="640" y="404.0669">HTTPS (Fallback Toxicity)</text></g><!--link ViteDev to NodeDev--><g class="link" data-entity-1="ViteDev" data-entity-2="NodeDev" data-source-line="61" data-uid="lnk28" id="link_ViteDev_NodeDev"><path d="M1879.64,123.18 C1868.56,141.97 1859.42,165.97 1866,188 C1876.74,223.94 1897.2508,254.5017 1917.1208,279.1117" fill="none" id="ViteDev-to-NodeDev" style="stroke:#181818;stroke-width:1;"/><polygon fill="#181818" points="1920.89,283.78,1918.3484,274.2647,1917.749,279.8897,1912.124,279.2903,1920.89,283.78" style="stroke:#181818;stroke-width:1;"/><text fill="#000000" font-family="sans-serif" font-size="13" lengthAdjust="spacing" textLength="75.7466" x="1867" y="184.0669">Proxy /api/*</text></g><!--link ViteDev to NodeDev--><g class="link" data-entity-1="ViteDev" data-entity-2="NodeDev" data-source-line="64" data-uid="lnk31" id="link_ViteDev_NodeDev"><path d="M1926.59,123.03 C1934.58,137.24 1942.72,154.35 1947,171 C1956.69,208.7 1956.6181,247.6826 1954.6681,277.7626" fill="none" id="ViteDev-to-NodeDev-1" style="stroke:#181818;stroke-width:1;"/><polygon fill="#181818" points="1954.28,283.75,1958.8538,275.0276,1954.6035,278.7605,1950.8706,274.5101,1954.28,283.75" style="stroke:#181818;stroke-width:1;"/><text fill="#000000" font-family="sans-serif" font-size="13" lengthAdjust="spacing" textLength="73.4741" x="1951" y="184.0669">HTTP (Dev)</text></g><!--link NodeDev to MongoDBDev--><g class="link" data-entity-1="NodeDev" data-entity-2="MongoDBDev" data-source-line="62" data-uid="lnk29" id="link_NodeDev_MongoDBDev"><path d="M2008.93,353.01 C2023.56,363.65 2038.17,376.48 2049,391 C2075.22,426.16 2087.861,469.8393 2094.511,501.3493" fill="none" id="NodeDev-to-MongoDBDev" style="stroke:#181818;stroke-width:1;"/><polygon fill="#181818" points="2095.75,507.22,2097.8053,497.588,2094.7175,502.3278,2089.9777,499.24,2095.75,507.22" style="stroke:#181818;stroke-width:1;"/><text fill="#000000" font-family="sans-serif" font-size="13" lengthAdjust="spacing" textLength="119.9897" x="2059" y="404.0669">MongoDB protocol</text></g><!--link NodeDev to DjangoDev--><g class="link" data-entity-1="NodeDev" data-entity-2="DjangoDev" data-source-line="63" data-uid="lnk30" id="link_NodeDev_DjangoDev"><path d="M1869.2,346.55 C1849.35,357.19 1830.54,371.63 1819,391 C1796.57,428.66 1823.9256,469.3205 1852.9356,499.4105" fill="none" id="NodeDev-to-DjangoDev" style="stroke:#181818;stroke-width:1;"/><polygon fill="#181818" points="1857.1,503.73,1853.733,494.4745,1853.6297,500.1305,1847.9737,500.0271,1857.1,503.73" style="stroke:#181818;stroke-width:1;"/><text fill="#000000" font-family="sans-serif" font-size="13" lengthAdjust="spacing" textLength="87.8325" x="1820" y="404.0669">HTTPS / REST</text></g><!--link DjangoDev to NodeDev--><g class="link" data-entity-1="DjangoDev" data-entity-2="NodeDev" data-source-line="65" data-uid="lnk32" id="link_DjangoDev_NodeDev"><path d="M1903.64,503.88 C1914.16,462.89 1930.3578,399.8615 1940.8778,358.8915" fill="none" id="DjangoDev-to-NodeDev" style="stroke:#181818;stroke-width:1;"/><polygon fill="#181818" points="1942.37,353.08,1936.2573,360.8024,1941.1265,357.9229,1944.006,362.792,1942.37,353.08" style="stroke:#181818;stroke-width:1;"/><text fill="#000000" font-family="sans-serif" font-size="13" lengthAdjust="spacing" textLength="108.71" x="1932" y="404.0669">HTTPS (optional)</text></g><g class="legend" data-source-line="70"><rect fill="#DDDDDD" height="140.375" rx="7.5" ry="7.5" style="stroke:#000000;stroke-width:1;" width="459.4629" x="1769.5371" y="781"/><text fill="#000000" font-family="sans-serif" font-size="14" lengthAdjust="spacing" textLength="297.3564" x="1774.5371" y="798.9951">&#171;device&#187; : User device / Developer Laptop</text><text fill="#000000" font-family="sans-serif" font-size="14" lengthAdjust="spacing" textLength="311.5615" x="1774.5371" y="815.292">&#171;server&#187; : Application or ML Backend Server</text><text fill="#000000" font-family="sans-serif" font-size="14" lengthAdjust="spacing" textLength="163.0098" x="1774.5371" y="831.5889">&#171;database&#187; : MongoDB</text><text fill="#000000" font-family="sans-serif" font-size="14" lengthAdjust="spacing" textLength="231.2461" x="1774.5371" y="847.8857">&#171;cloud&#187; : External cloud services</text><text fill="#000000" font-family="sans-serif" font-size="14" lengthAdjust="spacing" textLength="156.9873" x="1774.5371" y="864.1826">HTTPS : REST API calls</text><text fill="#000000" font-family="sans-serif" font-size="14" lengthAdjust="spacing" textLength="204.5107" x="1774.5371" y="880.4795">WSS : WebSocket / Socket.IO</text><text fill="#000000" font-family="sans-serif" font-size="14" lengthAdjust="spacing" textLength="287.1641" x="1774.5371" y="896.7764">MongoDB protocol : DB CRUD operations</text><text fill="#000000" font-family="sans-serif" font-size="14" lengthAdjust="spacing" textLength="449.4629" x="1774.5371" y="913.0732">Multiplicity arrows indicate multiple clients connecting to server</text></g><!--SRC=[fLPTRzis57tNhxZBmvgqbUrq7J8ONG3LTfgWKc9OTe9XsGCjCJORcXH8seatzB_lafGb-QD3Wld557dFuRtdVaXluFTN_O8tS369up0THxslqBkCnX0DXn12Vp2CR_v81jTZw5z5NqPHWgQlv0v-oka34nIYktGuIMAO6rFeRhkjo5DhninyELrggZ8f31McbSb5cpnfJgRQ_eSC3tJu85LOS2BCSi7RgzEFhKuxZiQ3TDmkMGFzo4H155a0CXHI85Tgrfo2efaXOiPfmqJFIIwVc9Z10-6Q1XXL-Dy_j1WgcIypmwI0WLWn9SK2Bta1LCYSmj6dJpbTiOoUdyC4uuM-Upe2eg776J9PVlWdW3e0E1fHaXcuK4wS_5w4q9iJ0vChkqoDL5Gx1cSN5KNmFQYkmqjMLE5rkCzPHfpdgTky5yVNQDNwfk4T39uBfD4dZWXjlSaXRqfBB0vtVxGqynvwfYJdbZE414_9Z6vlscZh7NTBIOGysnUaCdkafdLrK_aPmc1bZow9o17je_LcLpSxO8CXPd31CEart2iuNJAUGpjdsdW6PsjDzJP9pAQAA4QrnT8FT20ojIwiT2YMtJFocMNChCl7XHGpARNFOmK-c0Oi_Sy47HTvdON-DonDYKaOhirS2f-39Fvn2ah024j_auOK3vWjHMZ3kFGEbv4WV8r1UiayRazmz2b1Fxc6urRno4yitpLXAugkhhq8wMrY_swnZQHYVvSPJ6AFswPpTw89LZJHskC7Oav4HlFQJxkxSTGNNGbpkkN4a2dHlcFAjLNF2jt_3951Qk-2twbK-jEE4VqU5hu8SJLJSbdelonhnkKojvHkWNmz-yy4KMlezQ_BDjniMSvzo1SfSOp046yfK0sh4Whge8qzXttjGC7-4DGjzGkWZNaHXkSxFTk5o_5uc685tALfi7rchPkoTIjP2oMDp2G_18WFi1zNsMnlKdbo0BijQOs-Mc26O5bmIV93k1qzQ-05uNoANGJrhIXOikI6sI676qrrMgrzTHP4hC6LoikoX7EQSbcu1lkVSx-amlw8IM5auJkJhXAIpUqRSgVNRvcXzhWQ5qEfJ1T-FJtxvLvS9gFtjeAUiTT9mTfl7Pc586ARPpFgo-bJyNGwf_TYCzFVGJLy7PC5xJ6LqsVVfzywdSwzm6coQGXlwGdgZjvKMompmZVO3sUTqxDcHrlKzzSdvtKzL2hbggsC5OkZAMYmsMvqZRVQQvgcPHLvenFjkFx1ZTO4Zd5z4jJ8VHCiVUbUGuIVl4oQcCumsHf-HYP3No89TmXGR3OtGQDik_w3nJzZDBjb73HUSjsjhmsfzjzwmTPOhyGCwZdRnUy3GnM62du6MtQyMWTUYMxr-WCi8tm7uQ33pJiwzIMCBbQr7Epc2WtngJUQzC66G7ozD0S84ANaamOcSXi7XOK_fEYDdImQEy9N6du_6Wa-ze3Q3nGhuBy0]--></g></svg>